# xmcd
#
# Track frame offsets:
#	150
#	129344
#	168116
#	192010
#
# Disc length: 2870 seconds
#
# Revision: 1
# Processed by: cddbd v1.5.2PL0 Copyright (c) Steve Scherf et al.
# Submitted via: audiograbber 1.83.01
#
DISCID=260b3404
DTITLE=Grateful Dead - 73-05-13 State Fairgrounds, Des Moines IA
DYEAR=1900
DGENRE=
TTITLE0=Playing In The Band
TTITLE1=Mississippi Half-Step
TTITLE2=Greatest Story Ever Told
TTITLE3=Brown Eyed Women
EXTD=
EXTT0=
EXTT1=
EXTT2=
EXTT3=
PLAYORDER=
